<svg width="801" height="1351" viewBox="0 0 801 1351" fill="none" xmlns="http://www.w3.org/2000/svg">
<path fill-rule="evenodd" clip-rule="evenodd" d="M175.936 0.753016C174.629 1.58102 174.407 10.985 174.21 73.941C174.085 113.672 174.337 147.551 174.77 149.228C175.548 152.242 175.639 152.279 182.952 152.574C187.019 152.738 190.929 153.355 191.641 153.946C192.625 154.763 192.936 160.024 192.936 175.853V196.685L199.686 196.98L206.436 197.276L206.73 205.726C206.891 210.374 207.509 214.761 208.102 215.476C208.871 216.403 212.437 216.776 220.523 216.776C230.714 216.776 231.971 216.972 232.901 218.71C234.159 221.062 234.323 310.617 233.073 312.589C232.614 313.312 226.659 316.755 219.838 320.241C213.017 323.727 204.511 328.128 200.936 330.021C192.671 334.399 161.626 355.242 152.436 362.583C136.353 375.43 114.443 395.78 105.931 405.776C104.761 407.151 101.69 410.526 99.1073 413.276C90.3023 422.652 82.8613 432.266 69.8403 451.088C63.8783 459.706 62.9723 461.135 54.7853 474.826C48.9033 484.664 34.1773 513.694 31.9843 519.776C31.2903 521.701 30.1373 524.626 29.4213 526.276C26.5013 533.009 20.4293 550.373 17.0073 561.776C15.7693 565.901 14.3053 570.626 13.7543 572.276C13.2033 573.926 12.1773 577.976 11.4753 581.276C10.7733 584.576 9.25229 591.551 8.09529 596.776C1.29929 627.47 -1.71371 671.915 0.981293 701.717C3.12629 725.434 5.3973 744.25 6.8403 750.276C7.3673 752.476 8.77729 758.776 9.97429 764.276C12.5763 776.24 19.8403 801.783 22.4863 808.276C23.1583 809.926 24.7203 814.201 25.9563 817.776C27.1923 821.351 29.4933 827.09 31.0703 830.529C32.6463 833.968 33.9363 837.019 33.9363 837.309C33.9363 838.21 47.8893 865.951 51.5233 872.276C53.4203 875.576 55.5233 879.401 56.1973 880.776C56.8703 882.151 57.7793 883.726 58.2153 884.276C58.6513 884.826 62.1663 890.177 66.0273 896.167C72.9953 906.979 89.7843 929.901 92.8413 932.776C93.7183 933.601 98.5503 939.001 103.577 944.776C121.251 965.076 149.641 990.36 170.95 1004.78C172.17 1005.6 174.199 1007.06 175.459 1008.03C176.72 1008.99 178.037 1009.78 178.386 1009.78C178.735 1009.78 179.564 1010.25 180.228 1010.82C182.28 1012.6 193.393 1019.72 194.168 1019.75C194.571 1019.76 197.874 1021.6 201.507 1023.82C205.141 1026.04 213.656 1030.56 220.43 1033.85C227.204 1037.14 233.014 1040.54 233.341 1041.39C233.668 1042.24 233.936 1063.33 233.936 1088.25C233.936 1128.65 233.764 1133.63 232.354 1134.17C231.484 1134.5 225.848 1134.78 219.829 1134.78C209.003 1134.78 208.876 1134.8 207.911 1137.34C207.375 1138.75 206.936 1142.97 206.936 1146.72C206.936 1151.07 206.469 1153.92 205.644 1154.6C204.934 1155.19 201.221 1155.81 197.394 1155.98L190.436 1156.28L190.164 1175.7C189.992 1187.96 189.486 1195.61 188.791 1196.45C188.06 1197.33 185.226 1197.78 180.349 1197.78C174.113 1197.78 172.85 1198.07 171.971 1199.71C170.538 1202.39 170.538 1346.16 171.971 1348.84C172.99 1350.75 176.578 1350.78 397.889 1350.78C521.575 1350.78 623.484 1350.5 624.354 1350.17C625.777 1349.62 625.936 1342 625.936 1274.19V1198.81L623.686 1198.3C622.449 1198.02 618.511 1197.67 614.936 1197.53L608.436 1197.28L607.936 1176.78L607.436 1156.28L601.436 1155.99C593.747 1155.62 592.936 1154.55 592.936 1144.79C592.936 1140.2 592.459 1136.7 591.736 1135.98C590.956 1135.2 586.839 1134.77 579.986 1134.76C574.183 1134.75 568.856 1134.38 568.147 1133.93C567.124 1133.28 566.865 1123.62 566.895 1087.19L566.933 1041.28L569.684 1039.03C571.198 1037.8 572.764 1036.78 573.164 1036.78C576.414 1036.76 612.315 1016.94 621.94 1009.85C623.867 1008.44 626.166 1006.83 627.05 1006.28C630.307 1004.25 634.584 1001.18 640.284 996.785C643.501 994.305 646.876 991.826 647.784 991.276C648.693 990.726 652.807 987.351 656.927 983.776C661.047 980.201 665.997 975.926 667.927 974.276C677.73 965.895 700.234 942.407 710.562 929.776C712.136 927.851 713.989 925.681 714.68 924.955C715.371 924.228 715.936 923.323 715.936 922.944C715.936 922.566 716.953 921.135 718.195 919.766C720.088 917.679 737.626 891.64 743.254 882.559C747.862 875.126 765.357 840.967 767.758 834.716C768.484 832.824 769.92 829.251 770.947 826.776C778.389 808.848 786.936 781.207 790.427 763.776C791.364 759.101 792.761 753.166 793.533 750.588C794.305 748.01 794.937 744.41 794.939 742.588C794.941 740.766 795.593 735.451 796.389 730.776C797.184 726.101 798.307 715.751 798.884 707.776C799.462 699.801 800.211 689.676 800.55 685.276C801.236 676.37 798.655 636.531 796.436 621.776C795.65 616.551 794.791 610.701 794.526 608.776C793.799 603.501 788.257 578.019 787.17 574.957C786.646 573.482 785.511 569.801 784.648 566.776C781.757 556.647 778.822 547.294 777.9 545.276C777.398 544.176 776.049 540.576 774.902 537.276C773.755 533.976 771.885 529.026 770.746 526.276C769.607 523.526 768.322 520.376 767.891 519.276C764.223 509.92 746.005 474.729 740.815 466.976C739.231 464.611 737.936 462.471 737.936 462.221C737.936 461.971 735.973 458.956 733.573 455.521C731.174 452.086 728.132 447.701 726.814 445.776C722.631 439.665 716.247 431.258 712.277 426.632C710.165 424.169 706.411 419.749 703.936 416.809C690.284 400.592 664.797 375.955 649.229 363.926C643.961 359.856 620.077 343.776 619.299 343.776C618.983 343.776 617.082 342.539 615.076 341.026C610.933 337.902 610.565 337.671 598.859 330.834C594.142 328.078 587.842 324.657 584.859 323.231C581.876 321.805 576.736 319.195 573.436 317.431L567.436 314.225L567.176 266.315C566.972 228.651 567.186 218.235 568.176 217.606C568.869 217.167 574.949 216.8 581.686 216.791L593.936 216.776V208.71C593.936 197.552 594.489 196.776 602.436 196.776C607.769 196.776 609.042 196.446 609.901 194.842C610.516 193.693 610.936 184.761 610.936 172.842V152.776L618.686 152.761C622.949 152.752 627.001 152.386 627.692 151.948C628.686 151.317 628.895 135.401 628.692 75.713L628.436 0.276018L402.936 0.0400184C261.913 -0.107982 176.874 0.160016 175.936 0.753016ZM585.736 41.976C586.621 42.861 586.936 51.865 586.936 76.276C586.936 100.687 586.621 109.691 585.736 110.576C584.811 111.501 542.16 111.776 399.843 111.776C232.35 111.776 215.093 111.629 214.543 110.194C214.209 109.324 213.936 93.889 213.936 75.894C213.936 51.78 214.252 42.86 215.136 41.976C216.882 40.23 583.99 40.23 585.736 41.976ZM302.647 153.576C303.517 154.129 303.882 159.415 303.942 172.311C303.987 182.192 304.28 191.738 304.592 193.526L305.159 196.776H311.847C315.716 196.776 319.042 197.282 319.736 197.976C320.488 198.728 320.936 202.465 320.936 207.976V216.776L342.686 216.761C354.648 216.752 365.004 216.385 365.697 215.945C366.563 215.395 366.921 212.558 366.838 206.903C366.772 202.37 367.028 198.349 367.407 197.969C367.786 197.588 371.323 197.051 375.266 196.776L382.436 196.276L382.936 175.573C383.245 162.784 383.848 154.46 384.513 153.796C385.213 153.098 390.992 152.819 401.013 152.999L416.436 153.276L416.707 173.699C416.88 186.704 417.379 194.604 418.08 195.449C418.78 196.293 421.459 196.776 425.436 196.776C429.348 196.776 432.095 197.263 432.77 198.076C433.363 198.791 433.981 203.178 434.142 207.826L434.436 216.276H456.936H479.436L479.936 206.776L480.436 197.276L487.936 196.776L495.436 196.276L495.707 175.853C495.88 162.848 496.379 154.948 497.08 154.103C497.889 153.127 501.56 152.776 510.951 152.776C521.674 152.776 523.819 153.03 524.329 154.358C524.663 155.228 524.936 187.192 524.936 225.389C524.936 303.593 525.633 297.48 517.064 294.443C510.655 292.172 494.363 287.783 488.936 286.866C486.461 286.448 482.636 285.614 480.436 285.012C460.618 279.594 437.469 277.368 400.436 277.319C365.748 277.272 350.266 278.55 326.436 283.427C319.836 284.777 312.636 286.12 310.436 286.411C306.205 286.97 303.246 287.795 287.825 292.712C276.337 296.375 275.346 296.436 274.566 293.526C273.523 289.634 273.852 158.128 274.911 155.341L275.886 152.776L288.661 152.791C295.687 152.8 301.981 153.153 302.647 153.576ZM262.736 159.976C264.253 161.493 264.393 186.054 262.901 188.842C261.911 190.691 260.488 190.776 230.601 190.776C207.617 190.776 199.018 190.458 198.136 189.576C197.318 188.758 196.936 183.969 196.936 174.544C196.936 161.134 197.005 160.684 199.186 159.807C202.77 158.367 261.282 158.522 262.736 159.976ZM376.636 160.198C377.076 160.98 377.299 167.443 377.132 174.562C376.774 189.831 377.088 189.459 364.421 189.622C360.029 189.679 346.488 190.023 334.329 190.386C316.051 190.932 312.068 190.807 311.335 189.661C310.271 187.999 309.467 164.779 310.352 161.256L310.974 158.776H343.405C370.397 158.776 375.971 159.014 376.636 160.198ZM489.484 159.853C490.491 161.483 489.969 187.139 488.908 188.203C488.399 188.712 473.925 189.53 456.744 190.019C427.503 190.851 425.424 190.796 424.221 189.151C422.858 187.287 422.305 160.74 423.603 159.443C424.784 158.262 488.746 158.66 489.484 159.853ZM603.958 160.776C605.208 162.755 605.21 184.925 603.961 188.211L602.986 190.776H571.583C544.706 190.776 539.999 190.557 538.919 189.256C538.033 188.188 537.684 183.798 537.746 174.506C537.795 167.229 537.857 160.97 537.885 160.596C537.988 159.222 543.054 159.01 572.723 159.142C598.457 159.256 603.153 159.502 603.958 160.776ZM246.901 199.71C248.189 202.118 248.221 207.776 246.958 209.776C246.212 210.957 243.184 211.347 232.723 211.608C224.933 211.803 218.298 211.503 216.686 210.883C214.212 209.932 213.936 209.341 213.936 205.001C213.936 202.347 214.476 199.636 215.136 198.976C215.961 198.151 220.95 197.776 231.101 197.776C244.675 197.776 245.949 197.932 246.901 199.71ZM359.901 199.71C360.47 200.774 360.936 203.402 360.936 205.55C360.936 210.976 358.675 211.8 344.139 211.676C328.031 211.539 327.51 211.346 327.126 205.363C326.621 197.481 325.99 197.776 343.369 197.776C357.667 197.776 358.946 197.926 359.901 199.71ZM473.306 200.026C474.197 203.353 474.035 208.071 472.971 209.754C472.24 210.909 469.003 211.315 458.125 211.613C440.844 212.088 439.936 211.728 439.936 204.407C439.936 201.494 440.236 198.809 440.603 198.443C440.969 198.076 448.342 197.776 456.986 197.776C472.44 197.776 472.713 197.814 473.306 200.026ZM585.736 198.976C586.396 199.636 586.936 202.101 586.936 204.453C586.936 210.92 585.11 211.688 569.936 211.605C553.944 211.518 552.936 211.149 552.936 205.383C552.936 197.489 552.318 197.776 569.343 197.776C579.826 197.776 584.908 198.148 585.736 198.976ZM428.936 305.223C440.761 305.986 452.686 307.083 455.436 307.66C458.186 308.237 464.936 309.445 470.436 310.344C475.936 311.243 481.786 312.414 483.436 312.948C485.086 313.481 489.811 314.784 493.936 315.844C503.691 318.348 514.62 321.706 518.587 323.417C520.32 324.164 522.433 324.776 523.282 324.776C524.131 324.776 528.191 326.31 532.305 328.185C536.418 330.059 540.831 331.914 542.11 332.306C549.793 334.66 588.718 354.602 593.015 358.386C593.883 359.15 594.88 359.776 595.23 359.776C595.58 359.776 599.776 362.363 604.555 365.526C609.334 368.689 613.963 371.726 614.84 372.276C615.718 372.826 616.661 373.504 616.936 373.782C617.211 374.06 619.236 375.611 621.436 377.229C623.636 378.847 625.661 380.44 625.936 380.771C626.211 381.101 631.161 385.145 636.936 389.758C647.526 398.216 671.014 421.062 680.802 432.423C687.954 440.725 706.936 465.648 706.936 466.736C706.936 467.216 707.273 467.759 707.686 467.943C708.815 468.444 716.956 481.053 723.075 491.776C730.11 504.105 742.919 530.462 744.457 535.776C744.855 537.151 745.538 538.727 745.975 539.278C747.076 540.667 758.527 575.034 760.499 582.87C768.917 616.313 772.423 645.404 772.418 681.776C772.416 698.43 771.881 709.645 770.581 720.274C769.573 728.523 768.57 735.559 768.354 735.909C768.138 736.259 767.526 739.41 766.994 742.911C765.865 750.341 762.729 764.915 760.566 772.776C759.733 775.801 758.414 780.751 757.635 783.776C756.855 786.801 755.029 792.236 753.576 795.854C752.124 799.473 750.936 802.945 750.936 803.571C750.936 804.196 750.306 806.186 749.537 807.992C748.767 809.798 747.338 813.301 746.36 815.776C739.845 832.267 724.879 862.144 718.108 872.177C716.363 874.762 714.936 877.105 714.936 877.384C714.936 878.17 701.433 897.335 697.968 901.465C697.419 902.12 695.725 904.418 694.203 906.572C678.685 928.541 645.485 960.878 619.417 979.416C602.127 991.711 598.683 993.923 579.936 1004.78C575.925 1007.1 557.016 1016.13 546.436 1020.77C543.686 1021.98 540.086 1023.58 538.436 1024.33C521.013 1032.23 480.385 1043.64 458.436 1046.79C454.036 1047.42 446.379 1048.6 441.42 1049.41C421.954 1052.58 368.061 1052.83 354.936 1049.81C352.461 1049.24 345.936 1048.32 340.436 1047.76C320.912 1045.77 309.828 1043.29 280.436 1034.34C262.023 1028.73 223.942 1012.06 209.872 1003.46C207.912 1002.26 201.612 998.419 195.872 994.928C186.099 988.983 179.77 984.889 177.436 983.002C176.886 982.557 173.745 980.187 170.455 977.735C163.368 972.451 162.647 971.872 152.936 963.679C133.032 946.885 115.51 928.902 99.6163 908.956C91.1763 898.364 73.9653 872.52 67.1753 860.243C61.5543 850.079 50.6263 827.586 49.4583 823.776C49.0363 822.401 48.3703 820.826 47.9763 820.276C47.5833 819.726 46.2453 816.351 45.0013 812.776C43.7583 809.201 42.3483 805.376 41.8673 804.276C40.4303 800.983 36.6793 788.661 32.4303 773.276C30.4753 766.198 28.2333 756.051 27.4583 750.776C27.0943 748.301 26.3983 744.926 25.9123 743.276C23.9813 736.724 21.6983 714.265 21.0843 695.776C19.9083 660.378 21.3843 633.234 25.4613 615.276C26.2113 611.976 27.1113 607.026 27.4623 604.276C29.0943 591.505 44.1293 541.993 47.7563 537.448C48.2703 536.804 49.0313 535.151 49.4473 533.776C51.1673 528.092 62.6093 504.218 64.6863 501.98C65.3743 501.239 65.9363 500.272 65.9363 499.83C65.9363 499.388 68.4333 494.808 71.4853 489.651C79.1393 476.718 79.3693 476.341 79.9523 475.776C80.2363 475.501 83.1383 471.226 86.4023 466.276C99.8983 445.805 124.628 417.686 144.535 400.176C148.224 396.931 151.737 393.826 152.341 393.276C153.252 392.446 159.006 387.805 164.721 383.291C165.427 382.733 166.552 381.795 167.221 381.207C168.446 380.13 172.992 376.898 184.936 368.615C203.261 355.905 236.934 338.032 254.436 331.724C257.186 330.733 261.911 328.971 264.936 327.809C270.848 325.538 279.405 322.695 287.436 320.332C301.891 316.08 307.273 314.736 315.936 313.217C321.161 312.301 327.755 310.927 330.59 310.164C333.425 309.4 337.558 308.776 339.775 308.776C341.992 308.776 345.073 308.266 346.621 307.642C349.918 306.315 379.385 304.106 395.936 303.946C402.261 303.885 417.111 304.459 428.936 305.223ZM373.436 353.75C351.467 355.337 349.175 360.89 357.532 392.276C358.265 395.026 359.8 401.326 360.945 406.276C365.365 425.392 368.073 436.548 369.967 443.44C371.05 447.38 371.936 451.797 371.936 453.255C371.936 454.714 372.366 456.711 372.892 457.693C373.776 459.346 376.066 468.747 377.905 478.276C378.329 480.476 380.07 487.676 381.773 494.276C385.246 507.731 390.145 528.461 392.527 539.776C395.452 553.668 399.669 559.357 408.124 560.82C425.163 563.768 432.648 566.073 445.785 572.416C460.885 579.706 471.648 588.392 482.583 602.11C484.702 604.769 488.759 609.481 491.598 612.58L496.761 618.216L503.369 618.021C507.003 617.913 510.85 617.357 511.918 616.785C513.745 615.808 522.784 613.688 532.936 611.857C535.411 611.41 541.936 609.891 547.436 608.48C552.936 607.069 564.411 604.249 572.936 602.213C581.461 600.176 590.546 597.895 593.124 597.143C595.702 596.391 598.66 595.776 599.696 595.776C600.732 595.776 603.572 595.139 606.008 594.36C608.443 593.581 614.936 591.985 620.436 590.813C625.936 589.642 632.911 588.051 635.936 587.279C641.228 585.927 648.852 584.157 659.436 581.82C662.186 581.213 667.361 580.017 670.936 579.161C674.511 578.306 680.175 577.054 683.523 576.379C695.395 573.984 700.556 568.991 700.244 560.2C700.138 557.219 699.37 553.542 698.537 552.028C697.705 550.514 695.934 546.801 694.602 543.776C689.538 532.274 685.566 524.264 684.766 523.943C684.31 523.759 683.936 523.147 683.936 522.582C683.936 519.098 659.759 483.012 648.708 470.003C637.739 457.089 616.365 435.819 606.429 427.929C602.033 424.438 597.51 420.838 596.377 419.929C591.136 415.72 570.801 401.657 569.002 400.998C568.141 400.682 566.086 399.46 564.436 398.283C562.786 397.105 557.611 394.225 552.936 391.882C548.261 389.54 543.761 387.253 542.936 386.801C540.106 385.249 526.435 379.059 521.936 377.292C519.461 376.32 516.086 374.947 514.436 374.242C508.602 371.749 503.355 369.865 496.436 367.777C492.586 366.615 488.054 365.24 486.365 364.72C484.676 364.201 482.426 363.756 481.365 363.732C480.304 363.708 477.636 363.012 475.436 362.184C471.163 360.578 468.682 360.08 448.436 356.767C426.867 353.238 397.097 352.04 373.436 353.75ZM277.936 377.343C276.011 378.239 272.411 379.87 269.936 380.968C261.66 384.64 239.865 395.797 238.937 396.837C238.661 397.146 235.511 399.135 231.936 401.257C210.561 413.948 181.222 437.461 167.031 453.276C147.456 475.088 138.159 487.051 126.264 505.726C122.531 511.586 109.015 535.749 108.057 538.276C107.416 539.965 103.875 548.007 101.451 553.276C99.2163 558.136 94.6403 570.601 90.9883 581.776C86.9683 594.077 85.7033 598.46 84.9273 602.762C84.4793 605.245 83.4353 610.651 82.6073 614.776C77.9573 637.937 75.9263 658.586 76.0123 681.819C76.0983 704.821 76.7373 707.995 82.0173 711.628C85.1093 713.756 86.2013 713.931 93.4363 713.461C97.8363 713.175 105.711 711.839 110.936 710.491C116.161 709.143 124.936 707.05 130.436 705.841C135.936 704.631 142.686 703.02 145.436 702.261C148.186 701.502 154.036 700.135 158.436 699.222C162.836 698.31 168.686 696.985 171.436 696.279C174.186 695.572 180.936 694.022 186.436 692.835C191.936 691.647 198.011 690.259 199.936 689.75C210.176 687.042 216.989 685.445 221.816 684.623C224.774 684.12 228.007 683.273 229 682.742C229.992 682.211 232.072 681.778 233.62 681.781C235.169 681.784 238.461 681.128 240.936 680.323C246.059 678.658 263.072 674.776 265.246 674.776C266.038 674.776 269.199 673.665 272.27 672.307C278.846 669.399 280.351 667.042 281.926 657.186C284.68 639.953 290.684 624.438 300.271 609.776C305.921 601.135 319.89 586.904 328.021 581.507C331.09 579.471 334.404 576.916 335.386 575.831C337.936 573.014 338.333 566.377 336.438 558.276C334.112 548.33 331.99 538.999 330.873 533.796C330.344 531.333 329.264 526.833 328.473 523.796C327.683 520.76 326.081 514.001 324.915 508.776C323.748 503.551 322.418 497.701 321.96 495.776C321.028 491.86 317.661 476.925 315.309 466.276C314.459 462.426 313.135 457.026 312.368 454.276C310.8 448.66 308.367 438.062 307.431 432.776C307.09 430.851 306.426 428.151 305.955 426.776C305.485 425.401 304.125 419.776 302.933 414.276C296.918 386.517 295.22 381.275 291.317 378.42C287.785 375.837 282.148 375.383 277.936 377.343ZM428.936 380.85C452.184 383.153 485.419 390.631 499.436 396.713C500.536 397.19 504.361 398.616 507.936 399.881C511.511 401.147 515.561 402.763 516.936 403.473C518.311 404.183 519.857 404.766 520.372 404.77C520.886 404.773 522.349 405.754 523.622 406.95L525.936 409.125V496.828C525.936 568.228 525.691 584.735 524.617 585.626C522.792 587.141 510.143 589.976 508.102 589.329C507.184 589.037 504.468 586.337 502.067 583.328C489.364 567.408 468.294 551.862 449.936 544.865C445.261 543.083 440.086 541.026 438.436 540.293C436.786 539.56 432.118 538.143 428.062 537.143C423.061 535.911 420.249 534.657 419.325 533.247C418.576 532.104 417.042 526.918 415.916 521.722C413.584 510.962 412.879 507.827 409.966 495.276C408.817 490.326 407.425 483.855 406.873 480.896C406.32 477.938 405.492 474.788 405.033 473.896C404.575 473.005 403.898 470.476 403.529 468.276C402.718 463.434 400.186 452.108 398.386 445.276C397.662 442.526 396.312 436.676 395.386 432.276C394.461 427.876 393.111 422.026 392.386 419.276C391.662 416.526 390.363 411.126 389.5 407.276C388.636 403.426 387.183 397.351 386.27 393.776C383.744 383.888 383.901 380.552 386.936 379.609C389.931 378.678 414.275 379.398 428.936 380.85ZM279.557 424.327C280.65 428.44 282.702 437.378 286.316 453.776C286.619 455.151 287.6 459.201 288.496 462.776C289.392 466.351 290.695 472.201 291.39 475.776C292.613 482.065 293.516 485.713 296.461 496.276C297.228 499.026 298.158 503.301 298.527 505.776C298.896 508.251 300.301 514.551 301.648 519.776C302.996 525.001 304.494 531.301 304.977 533.776C307.028 544.282 308.685 551.513 309.844 555.01C311.468 559.914 310.715 561.896 305.647 566.053C298.071 572.268 288.859 581.9 283.289 589.431C280.282 593.497 277.398 596.561 276.879 596.241C276.3 595.883 275.936 561.506 275.936 507.134C275.936 416.504 276.154 411.53 279.557 424.327ZM578.56 440.206C609.127 463.205 633.812 490.05 654.484 522.776C662.089 534.815 669.727 551.776 667.544 551.776C667.328 551.776 662.041 553.055 655.794 554.619C649.547 556.183 640.836 558.234 636.436 559.178C632.036 560.122 627.086 561.359 625.436 561.927C622.235 563.029 612.631 565.256 604.448 566.794C601.704 567.309 598.329 568.16 596.948 568.685C595.566 569.209 590.161 570.605 584.936 571.786C579.711 572.967 574.054 574.348 572.365 574.854C565.33 576.965 565.936 583.614 565.936 504.276C565.936 444.297 566.157 432.776 567.31 432.776C568.066 432.776 573.128 436.12 578.56 440.206ZM233.436 543.263V652.249L230.436 653.688C228.786 654.479 224.961 655.683 221.936 656.363C212.406 658.506 203.611 660.53 198.436 661.771C185.353 664.91 181.944 665.705 175.436 667.137C171.586 667.984 162.586 670.089 155.436 671.816C148.286 673.542 140.411 675.337 137.936 675.804C135.461 676.271 131.411 677.175 128.936 677.812C126.461 678.449 121.961 679.607 118.936 680.385C115.911 681.163 110.961 681.906 107.936 682.038L102.436 682.276L102.089 675.776C101.634 667.264 103.752 641.861 105.535 634.445C106.305 631.238 106.936 627.262 106.936 625.609C106.936 619.728 117.278 582.351 121.416 573.276C122.169 571.626 123.762 567.801 124.956 564.776C126.933 559.77 138.438 536.086 141.23 531.276C149.438 517.133 163.023 497.131 168.436 491.219C168.986 490.618 171.664 487.46 174.388 484.201C182.546 474.44 202.794 454.747 212.936 446.71C228.355 434.492 229.343 433.816 231.436 434.051C233.422 434.274 233.436 435.018 233.436 543.263ZM379.386 590.699C378.864 591.207 376.186 592.062 373.436 592.6C350.815 597.024 329.925 613.904 318.15 637.276C306.838 659.726 307.835 690.368 320.636 713.724C330.252 731.27 342.699 742.4 362.204 750.894C369.479 754.063 372.569 754.857 385.436 756.865C395.728 758.471 417.027 756.353 423.436 753.087C424.536 752.526 429.464 750.089 434.388 747.672C441.975 743.946 444.872 741.742 453.388 733.213C468.01 718.569 474.234 705.969 477.481 684.44C480.916 661.669 471.625 632.891 455.472 616.271C446.815 607.364 432.696 598.183 422.936 595.115C409.23 590.807 382.106 588.056 379.386 590.699ZM403.936 617.198C408.611 617.976 414.362 619.309 416.715 620.16C423.214 622.511 431.528 628.441 436.748 634.449C442.083 640.59 448.936 652.903 448.936 656.348C448.936 657.618 449.386 658.936 449.936 659.276C450.512 659.632 450.931 664.855 450.923 671.585C450.905 687.723 447.828 697.507 439.45 708.056C428.754 721.524 414.923 728.389 396.316 729.465C384.377 730.155 376.105 728.154 365.695 722.059C357.889 717.487 348.18 707.647 345.096 701.182C343.809 698.484 342.121 694.926 341.345 693.276C339.814 690.022 338.172 682.93 337.283 675.731C336.664 670.724 339.211 656.392 341.5 652.005C342.283 650.504 342.926 648.902 342.93 648.445C342.941 646.98 350.156 636.403 353.855 632.43C360.288 625.52 372.586 618.883 382.436 617.005C389.866 615.588 394.511 615.63 403.936 617.198ZM697.436 630.933C693.036 631.991 687.636 633.239 685.436 633.705C680.584 634.735 668.737 637.564 663.936 638.84C652.451 641.892 630.567 646.776 628.38 646.776C626.964 646.776 624.822 647.309 623.62 647.96C622.419 648.612 619.636 649.46 617.436 649.846C609.326 651.27 597.378 653.906 595.436 654.701C594.336 655.152 589.836 656.306 585.436 657.266C581.036 658.227 574.736 659.687 571.436 660.512C568.136 661.336 563.3 662.381 560.689 662.833C558.078 663.285 555.465 663.949 554.882 664.309C554.3 664.669 551.486 665.334 548.63 665.786C540.922 667.006 518.973 672.594 514.818 674.393C510.08 676.446 507.489 681.217 505.552 691.456C502.878 705.589 497.618 719.364 490.204 731.65C487.673 735.844 485.322 739.501 484.98 739.776C484.638 740.051 482.26 742.976 479.695 746.276C475.011 752.303 472.094 754.987 458.431 765.844C448.252 773.933 448.264 773.83 454.379 800.276C455.142 803.576 456.422 809.201 457.223 812.776C458.025 816.351 459.168 821.076 459.764 823.276C460.359 825.476 461.562 830.651 462.436 834.776C463.311 838.901 464.65 844.751 465.413 847.776C468.735 860.948 470.058 866.59 470.923 871.276C471.431 874.026 472.977 880.776 474.357 886.276C475.738 891.776 477.609 899.651 478.515 903.776C479.421 907.901 480.787 913.269 481.549 915.704C482.312 918.14 482.936 921.125 482.936 922.339C482.936 923.553 483.565 926.736 484.334 929.411C486.715 937.693 492.935 964.344 492.958 966.362C492.988 968.981 496.391 976.275 498.778 978.837C501.564 981.827 507.886 982.438 513.694 980.278C520.778 977.644 544.287 967.662 545.436 966.8C545.986 966.387 549.811 964.245 553.936 962.04C565.427 955.896 568.227 954.344 569.377 953.484C569.96 953.049 575.386 949.459 581.436 945.507C587.486 941.554 593.556 937.298 594.926 936.048C596.295 934.799 597.726 933.776 598.104 933.776C598.483 933.776 599.398 933.171 600.137 932.432C600.877 931.692 604.847 928.279 608.959 924.846C623.771 912.481 637.648 898.261 650.936 881.83C652.861 879.45 654.886 876.991 655.436 876.365C660.722 870.349 674.44 850.111 680.915 838.776C687.47 827.302 696.29 809.226 699.945 799.776C701.753 795.101 703.826 789.889 704.552 788.193C705.713 785.481 708.374 777.27 713.597 760.29C714.441 757.547 715.51 753.272 715.972 750.79C716.434 748.307 717.25 744.251 717.785 741.776C722.188 721.414 724.488 697.119 724.234 673.664C723.88 640.917 721.732 632.53 713.037 629.924C708.271 628.497 707.316 628.558 697.436 630.933ZM697.736 661.976C700.287 664.527 698.833 701.126 695.419 720.276C694.634 724.676 693.706 730.301 693.356 732.776C692.636 737.871 690.482 747.099 688.454 753.776C680.505 779.952 673.43 798.582 666.617 811.276C661.313 821.159 653.398 834.77 649.831 840.14C647.689 843.365 645.936 846.195 645.936 846.428C645.936 846.977 630.422 867.206 626.496 871.776C617.578 882.157 595.773 902.607 584.082 911.555C571.191 921.421 568.699 922.819 567.491 920.864C567.181 920.363 566.921 868.781 566.914 806.237C566.905 722.949 567.205 692.157 568.035 691.156C569.176 689.782 570.194 689.475 583.936 686.366C594.831 683.9 602.268 682.185 612.436 679.792C617.386 678.627 624.586 676.975 628.436 676.121C632.286 675.267 637.911 673.951 640.936 673.196C643.961 672.441 649.811 671.111 653.936 670.241C662.225 668.492 670.77 666.396 678.524 664.21C681.322 663.421 684.922 662.744 686.524 662.706C688.126 662.667 690.336 662.249 691.436 661.776C694.316 660.538 696.363 660.603 697.736 661.976ZM275.436 731.391C272.136 732.169 267.636 733.279 265.436 733.857C263.236 734.435 255.586 736.193 248.436 737.764C235.677 740.568 217.831 744.697 208.936 746.905C206.461 747.519 202.861 748.376 200.936 748.809C194.311 750.301 166.416 756.646 154.936 759.273C124.864 766.155 117.033 767.977 111.936 769.279C108.911 770.052 105.298 770.913 103.907 771.194C102.516 771.474 99.8163 773.098 97.9073 774.804C94.7623 777.613 94.4433 778.391 94.5113 783.09C94.5833 788.064 98.3023 800.266 100.081 801.366C100.551 801.656 100.936 802.553 100.936 803.359C100.936 805.634 112.549 829.219 118.81 839.657C121.904 844.817 125.366 850.667 126.502 852.657C128.501 856.159 140.722 873.21 144.146 877.276C145.073 878.376 147.985 881.976 150.619 885.276C161.825 899.321 185.73 922.01 203.936 935.88C224.393 951.466 255.555 968.828 279.936 978.224C285.161 980.238 290.854 982.535 292.587 983.33C294.32 984.126 296.38 984.776 297.164 984.776C297.949 984.776 302.606 986.078 307.513 987.668C338.982 997.869 378.343 1002.92 410.71 1000.92C424.474 1000.06 427.517 999.58 430.44 997.774C436.62 993.954 436.914 987.884 431.945 966.776C430.845 962.101 429.499 955.801 428.955 952.776C428.41 949.751 427.537 946.151 427.014 944.776C426.093 942.353 425.168 938.381 422.356 924.776C421.617 921.201 420.291 915.351 419.409 911.776C418.527 908.201 416.898 901.226 415.791 896.276C414.683 891.326 413.397 885.701 412.933 883.776C412.469 881.851 411.176 876.226 410.06 871.276C408.943 866.326 407.294 859.126 406.395 855.276C405.495 851.426 404.355 846.251 403.861 843.776C403.366 841.301 402.298 836.576 401.488 833.276C398.31 820.343 394.11 802.095 393.511 798.622C393.148 796.514 391.459 793.415 389.519 791.297C386.394 787.885 385.355 787.467 374.796 785.364C353.302 781.083 338.527 774.545 322.297 762.13C318.371 759.126 313.627 755.006 311.755 752.973C307.438 748.282 297.936 735.725 297.936 734.708C297.936 734.285 296.42 733.002 294.568 731.858C290.608 729.41 284.462 729.26 275.436 731.391ZM525.954 838.597C525.929 897.496 525.653 946.35 525.342 947.161C525.03 947.972 523.468 949.092 521.87 949.649C518.195 950.93 516.253 949.225 515.429 943.994C515.107 941.949 513.965 937.126 512.892 933.276C511.819 929.426 510.095 922.451 509.062 917.776C504.703 898.064 501.69 884.964 500.435 880.276C499.037 875.056 497.572 869.063 495.422 859.776C492.075 845.317 490.959 840.41 488.483 829.276C487.016 822.676 485.344 815.926 484.768 814.276C484.193 812.626 483.373 809.476 482.947 807.276C482.521 805.076 481.453 800.022 480.572 796.045C479.47 791.065 479.267 788.107 479.921 786.545C480.443 785.297 483.93 781.801 487.67 778.776C491.41 775.751 497.196 770.126 500.528 766.276C506.729 759.112 517.936 742.862 517.936 741.037C517.936 740.478 518.582 739.485 519.372 738.829C520.161 738.174 521.091 736.346 521.438 734.767C521.949 732.442 524.395 730.475 525.718 731.326C525.874 731.426 525.98 779.698 525.954 838.597ZM285.866 763.008C308.036 788.389 328.278 801.222 360.436 810.285C370.79 813.203 371.886 814.201 371.922 820.743C371.93 822.099 372.569 825.024 373.343 827.243C374.117 829.461 375.736 836.001 376.942 841.776C378.147 847.551 379.522 853.626 379.998 855.276C380.474 856.926 381.821 862.551 382.99 867.776C384.16 873.001 386.417 882.901 388.007 889.776C389.596 896.651 391.556 905.201 392.361 908.776C395.029 920.619 397.97 933.227 398.892 936.776C399.391 938.701 400.108 942.419 400.484 945.038C400.859 947.658 401.565 950.047 402.051 950.347C402.538 950.648 402.936 951.865 402.936 953.053C402.936 954.24 403.886 958.934 405.046 963.485C406.207 968.035 406.896 972.438 406.578 973.267C405.367 976.421 363.179 974.337 346.936 970.321C343.911 969.573 337.836 968.191 333.436 967.25C322.802 964.976 303.359 959.334 298.936 957.238C297.561 956.586 295.086 955.594 293.436 955.034C282.66 951.371 275.968 948.085 274.996 945.979C273.621 943 273.509 765.03 274.879 761.425C275.712 759.236 277.182 758.289 280.366 757.892C280.877 757.828 283.352 760.13 285.866 763.008ZM234.936 845.698C234.936 901.773 234.642 920.67 233.755 921.557C232.847 922.465 231.749 922.118 229.005 920.06C227.042 918.587 225.211 917.13 224.936 916.823C224.661 916.516 221.789 914.295 218.554 911.888C215.319 909.481 211.944 906.884 211.054 906.117C210.164 905.35 206.736 902.396 203.436 899.553C193.66 891.13 179.861 876.938 171.568 866.776C167.304 861.551 163.073 856.376 162.167 855.276C159.075 851.522 144.53 829.29 141.231 823.276C136.565 814.77 129.845 800.762 128.904 797.578C128.386 795.83 128.516 794.552 129.271 793.949C130.843 792.692 141.176 789.776 144.056 789.776C145.328 789.776 148.184 789.154 150.403 788.393C152.621 787.632 158.036 786.243 162.436 785.307C166.836 784.37 172.236 783.156 174.436 782.608C181.171 780.93 195.185 777.715 199.936 776.757C202.411 776.258 207.361 775.118 210.936 774.223C227.596 770.055 232.475 769.166 233.686 770.079C234.666 770.818 234.936 787.125 234.936 845.698ZM285.971 1060.35C290.077 1061.77 295.236 1063.27 297.436 1063.69C299.636 1064.12 303.461 1065.02 305.936 1065.69C321.401 1069.93 332.973 1072.22 346.822 1073.77C351.985 1074.35 356.595 1075.07 357.067 1075.36C360.885 1077.72 432.166 1077.36 445.436 1074.91C448.736 1074.3 457.061 1072.88 463.936 1071.75C478.617 1069.33 489.856 1067.12 495.436 1065.56C497.636 1064.95 501.461 1064.12 503.936 1063.72C506.411 1063.31 511.743 1061.78 515.785 1060.31C519.827 1058.84 523.764 1057.88 524.535 1058.18C525.718 1058.63 525.936 1069.47 525.936 1127.69C525.936 1172.66 525.587 1196.87 524.935 1197.28C523.559 1198.13 497.973 1198.15 497.121 1197.3C496.744 1196.92 496.211 1187.54 495.936 1176.44L495.436 1156.28L488.194 1155.98C479.783 1155.64 480.092 1156.1 479.688 1143.28L479.436 1135.28L457.507 1135.01C440.632 1134.8 435.393 1135.03 434.773 1136.01C434.329 1136.7 433.96 1140.57 433.951 1144.59C433.93 1154.93 433.291 1155.78 425.523 1155.78C421.476 1155.78 418.783 1156.26 418.081 1157.1C417.386 1157.94 416.88 1165.59 416.708 1177.85L416.436 1197.28H399.936H383.436L383.164 1177.32C382.968 1162.89 382.552 1157.15 381.664 1156.59C380.989 1156.16 377.672 1155.8 374.293 1155.79C366.995 1155.77 366.936 1155.69 366.936 1144.89C366.936 1140.22 366.462 1136.7 365.736 1135.98C364.876 1135.12 358.358 1134.78 342.736 1134.78H320.936L320.922 1143.03C320.901 1155.94 321.01 1155.78 312.436 1155.78C305.958 1155.78 305.111 1156 304.635 1157.82C304.341 1158.94 304.046 1168.05 303.98 1178.06C303.914 1188.06 303.503 1196.61 303.067 1197.05C302.631 1197.48 296.46 1197.71 289.355 1197.56L276.436 1197.28L276.177 1128.78C276.035 1091.1 276.133 1059.71 276.396 1059.03C277.039 1057.34 277.391 1057.39 285.971 1060.35ZM246.901 1142.71C248.128 1145 248.242 1150.75 247.095 1152.55C246.482 1153.52 242.431 1153.76 230.361 1153.55L214.436 1153.28L214.128 1148.45C213.649 1140.93 213.994 1140.78 231.023 1140.78C244.674 1140.78 245.949 1140.93 246.901 1142.71ZM359.002 1143.81C360.45 1144.59 360.936 1145.92 360.936 1149.11C360.936 1151.46 360.396 1153.92 359.736 1154.58C358.908 1155.4 353.826 1155.78 343.343 1155.78C330.411 1155.78 328.06 1155.54 327.543 1154.19C326.726 1152.06 326.769 1144.28 327.603 1143.44C328.693 1142.35 356.894 1142.68 359.002 1143.81ZM472.736 1143.98C473.396 1144.64 473.936 1147.02 473.936 1149.28C473.936 1151.53 473.396 1153.92 472.736 1154.58C471.061 1156.25 442.811 1156.25 441.136 1154.58C440.476 1153.92 439.936 1151.53 439.936 1149.28C439.936 1147.02 440.476 1144.64 441.136 1143.98C442.811 1142.3 471.061 1142.3 472.736 1143.98ZM585.736 1143.98C587.209 1145.45 587.306 1151.22 585.901 1153.84C584.946 1155.63 583.668 1155.78 569.508 1155.78C556.426 1155.78 554.06 1155.54 553.543 1154.19C552.726 1152.06 552.769 1144.28 553.603 1143.44C554.853 1142.19 584.444 1142.68 585.736 1143.98ZM260.849 1162.73C262.8 1163.77 262.936 1164.69 262.936 1176.84V1189.83L260.371 1190.8C256.847 1192.14 200.384 1192.09 197.87 1190.74C196.113 1189.8 195.936 1188.54 195.936 1176.94C195.936 1169.9 196.377 1163.74 196.92 1163.19C198.378 1161.73 258.181 1161.3 260.849 1162.73ZM374.686 1162.66C376.906 1162.77 376.936 1162.96 376.936 1176.73V1190.69L373.686 1191.29C371.898 1191.62 357.257 1191.75 341.149 1191.58C316.432 1191.32 311.713 1191.04 310.914 1189.78C309.883 1188.14 309.597 1168.64 310.551 1165.08C310.936 1163.65 312.056 1162.78 313.788 1162.58C316.167 1162.31 369.191 1162.37 374.686 1162.66ZM488.686 1163.11C489.581 1163.67 489.936 1167.56 489.936 1176.8C489.936 1188.54 489.761 1189.8 488.002 1190.74C485.488 1192.09 429.025 1192.14 425.501 1190.8L422.936 1189.83V1176.77C422.936 1164.56 423.068 1163.66 424.967 1162.96C427.668 1161.96 487.084 1162.1 488.686 1163.11ZM603.038 1163.91C604.214 1165.76 604.145 1187.9 602.958 1189.78C602.157 1191.04 597.336 1191.32 571.723 1191.57C555.065 1191.73 540.423 1191.61 539.186 1191.3C536.988 1190.75 536.936 1190.42 536.936 1176.84C536.936 1167.12 537.288 1162.82 538.105 1162.55C538.748 1162.34 553.426 1162.25 570.723 1162.35C596.091 1162.5 602.339 1162.8 603.038 1163.91ZM585.544 1241.53C586.585 1242.9 586.872 1250.3 586.872 1275.78C586.872 1301.26 586.585 1308.65 585.544 1310.03C584.287 1311.68 574.284 1311.78 400.276 1311.78C258.545 1311.78 216.061 1311.5 215.136 1310.58C213.417 1308.86 213.417 1242.69 215.136 1240.98C216.061 1240.05 258.545 1239.78 400.276 1239.78C574.284 1239.78 584.287 1239.87 585.544 1241.53Z" fill="black"/>
</svg>
