<svg width="602" height="873" viewBox="0 0 602 873" fill="none" xmlns="http://www.w3.org/2000/svg">
<path fill-rule="evenodd" clip-rule="evenodd" d="M291.282 1.88052C286.661 3.96652 283.369 7.23652 281.849 11.2485C281.261 12.8005 280.782 20.9925 280.782 29.4985C280.782 46.8145 280.462 46.2215 288.282 43.4045C293.498 41.5255 308.066 41.5255 313.282 43.4045C321.31 46.2965 320.953 47.0425 320.598 28.1025C320.283 11.3285 320.272 11.2575 317.416 7.51652C312.032 0.46452 300.112 -2.10548 291.282 1.88052ZM293.335 46.0265C289.514 46.4555 285.464 47.2365 284.335 47.7625C272.675 53.1965 269.702 55.0945 264.318 60.5425C256.891 68.0595 256.709 68.2975 253.498 74.6905C245.028 91.5535 247.158 114.428 258.547 128.934C269.776 143.235 283.397 150.038 300.852 150.064C322.486 150.096 340.686 137.785 349.827 116.934C351.987 112.008 353.775 105.535 353.781 97.9705C353.788 89.9785 352.035 84.0055 349.403 77.9795C344.131 65.9075 334.571 55.7385 323.958 50.9155C321.386 49.7465 318.51 48.3785 317.566 47.8745C316.622 47.3705 313.247 46.6995 310.066 46.3835C306.885 46.0665 303.382 45.6815 302.282 45.5275C301.182 45.3725 297.156 45.5975 293.335 46.0265ZM317.202 58.7915C330.117 64.5145 338.824 75.3715 342.233 90.0065C343.916 97.2305 343.917 97.9435 342.244 105.507C341.28 109.867 339.17 115.784 337.556 118.657C333.848 125.257 325.686 132.759 318.131 136.511C312.683 139.217 311.493 139.414 300.782 139.391C287.922 139.364 284.182 138.175 275.068 131.22C267.099 125.137 262.659 118.354 259.671 107.697C257.279 99.1635 257.303 96.7035 259.869 87.3495C261.721 80.5995 268.76 67.9435 270.671 67.9285C271.007 67.9265 272.669 66.6235 274.365 65.0345C278.009 61.6185 284.269 58.2825 289.516 56.9595C296.112 55.2975 311.635 56.3245 317.202 58.7915ZM296.449 59.6005C296.082 59.9665 295.782 65.3915 295.782 71.6545V83.0435L300.532 82.7385L305.282 82.4335L305.564 70.6835L305.845 58.9335H301.48C299.08 58.9335 296.815 59.2335 296.449 59.6005ZM294.042 88.2455C285.78 93.8255 288.754 108.35 298.282 108.955C304.18 109.33 305.794 108.895 308.94 106.084C311.733 103.589 312.139 102.579 312.206 97.9705C312.277 93.0525 312.025 92.4855 308.365 89.3205C303.675 85.2645 298.978 84.9125 294.042 88.2455ZM281.219 102.036C280.844 102.642 279.13 103.78 277.41 104.565C273.254 106.462 267.58 109.82 266.046 111.292C264.241 113.023 267.577 119.434 270.282 119.434C271.382 119.434 275.994 117.236 280.532 114.549C288.901 109.594 290.372 107.498 287.282 104.934C286.457 104.249 285.782 103.069 285.782 102.312C285.782 100.673 282.195 100.457 281.219 102.036ZM313.796 104.907L311.769 108.879L314.026 110.247C315.267 110.999 319.345 113.486 323.09 115.774C326.834 118.062 330.553 119.934 331.354 119.934C332.954 119.934 336.97 114.028 336.448 112.443C336.054 111.249 318.797 101.051 317.052 100.982C316.376 100.956 314.911 102.722 313.796 104.907ZM267.22 145.235C266.788 146.361 267.054 157.858 267.728 167.184C267.758 167.596 282.632 167.934 300.782 167.934H333.782V155.934C333.782 149.334 333.432 143.934 333.005 143.934C332.577 143.934 331.339 144.556 330.253 145.317C326.042 148.266 315.494 151.989 308.328 153.055C297.708 154.634 286.715 152.905 276.824 148.099C272.676 146.083 268.945 144.284 268.533 144.101C268.12 143.918 267.53 144.428 267.22 145.235ZM237.097 171.929C233.566 173.371 232.782 176.184 232.782 187.414C232.782 197.347 232.939 198.182 235.237 200.479L237.691 202.934H300.626C361.101 202.934 363.653 202.859 365.921 201.022C368.166 199.205 368.282 198.518 368.282 187.058C368.282 176.822 368.013 174.736 366.497 173.22C364.825 171.548 360.717 171.421 301.997 171.236C267.04 171.125 238.315 171.432 237.097 171.929ZM268.443 206.674C267.674 207.918 267.306 224.791 268.032 225.517C268.397 225.883 270.178 225.316 271.989 224.259C281.754 218.555 280.66 219.167 286.781 217.434C297.49 214.401 310.004 216.007 315.282 217.434C318.982 218.433 324.13 221.684 324.13 221.684C328.997 224.021 333.175 225.934 333.416 225.934C333.657 225.934 333.726 221.547 333.568 216.184L333.282 206.434L301.1 206.17C283.399 206.025 268.704 206.252 268.443 206.674ZM121.782 222.247C104.658 228.008 95.1149 237.544 87.1459 256.859C84.6059 263.016 84.5989 281.656 87.1339 287.434C91.8069 298.083 95.1019 303.803 98.8479 307.772C103.163 312.342 113.358 319.93 115.198 319.94C115.794 319.944 117.614 320.641 119.242 321.49C124.03 323.986 136.696 325.27 145.254 324.127C155.703 322.73 166.451 317.286 174.367 309.379C177.714 306.036 181.086 301.869 181.861 300.118C182.636 298.367 183.951 296.934 183.951 296.934C183.951 296.934 185.791 293.355 187.207 288.98C194.634 266.036 186.052 241.436 165.898 227.9C154.454 220.215 135.17 217.744 121.782 222.247ZM293.098 219.934C290.572 220.451 286.684 220.746 284.281 221.684C269.932 227.28 260.792 235.677 254.326 247.982C248.478 259.11 246.846 269.784 249.21 281.434C250.804 289.289 255.455 300.934 256.998 300.934C257.429 300.934 257.788 301.497 257.795 302.184C257.802 302.872 260.615 306.184 264.045 309.544C284.363 329.448 316.047 329.699 336.751 310.119C343.249 303.974 344.111 302.767 348.302 293.934C356.215 277.259 353.793 255.165 342.437 240.434C337.365 233.854 325.085 225.934 325.085 225.934C324.281 225.434 323.995 225.307 323.281 224.934C315.486 220.858 313.195 219.934 304.281 219.434C300.148 219.202 297.153 219.102 293.098 219.934ZM452.782 220.934C451.957 221.467 450.358 221.91 449.228 221.919C444.258 221.956 430.528 230.616 424.85 237.294C423.513 238.867 421.922 240.667 421.314 241.294C419.345 243.325 415.028 252.366 413.384 257.901C410.832 266.496 411.235 280.406 414.289 289.148C415.669 293.096 417.183 296.575 417.655 296.88C418.126 297.185 418.827 298.441 419.211 299.672C419.595 300.902 422.918 304.978 426.595 308.729C449.923 332.52 488.319 329.365 507.063 302.116C508.901 299.443 510.983 295.721 511.689 293.845C512.394 291.969 513.716 288.649 514.627 286.466C516.997 280.784 516.832 264.293 514.33 256.934C508.251 239.051 495.413 226.678 477.628 221.561C471.388 219.765 455.222 219.357 452.782 220.934ZM151.468 232.468C155.17 233.861 158.928 235.661 159.819 236.468C160.71 237.274 161.809 237.934 162.261 237.934C163.144 237.934 170.472 245.529 172.533 248.581C173.222 249.6 175.009 252.909 176.505 255.934C178.964 260.905 179.228 262.501 179.254 272.531C179.271 279.26 178.162 285.031 178.162 285.031C178.162 285.031 176.499 288.122 175.835 290.184C175.17 292.247 173.704 293.934 173.704 293.934L172.782 295.202C172.782 295.202 162.313 307.134 156.282 310.278C150.5 313.293 137.782 313.42 137.782 313.42C137.782 313.42 124.981 313.284 119.31 310.462C111.675 306.662 103.054 298.041 99.2539 290.406C96.4319 284.735 96.2829 283.804 96.2949 271.934C96.3079 260.044 96.4509 259.166 99.2369 253.934C100.848 250.909 105.124 245.497 108.739 241.908C113.969 236.716 116.74 234.842 122.297 232.736C131.999 229.06 142.166 228.966 151.468 232.468ZM314.028 232.094C323.625 235.408 331.492 241.763 337.209 250.819C340.237 255.615 344.125 270.283 343.465 274.421C341.198 288.645 336.134 297.688 325.444 306.6C321.826 309.617 313.081 313.093 307.475 313.743C283.992 316.465 265.949 304.431 259.699 281.877C258.645 278.072 257.969 276.084 257.782 272.26C257.361 263.66 261.612 255.346 264.057 251.124C274.016 233.923 295.564 225.717 314.028 232.094ZM482.048 234.348C491.08 238.814 497.681 245.386 502.282 254.495C505.123 260.119 505.282 261.076 505.282 272.53C505.282 280.011 504.852 285.162 504.154 286.03C503.534 286.802 502.687 288.559 502.271 289.934C500.388 296.16 490.227 306.472 481.863 310.644C476.653 313.242 475.452 313.427 463.782 313.427C452.113 313.427 450.916 313.243 445.782 310.656C436.816 306.139 428.89 297.935 425.763 289.934C425.011 288.009 423.934 286.122 423.37 285.74C422.774 285.336 422.331 280.311 422.313 273.74C422.286 263.922 422.61 261.645 424.772 256.434C426.142 253.134 427.83 250.074 428.522 249.634C429.215 249.194 429.782 248.349 429.782 247.754C429.782 246.415 437.905 237.934 439.188 237.934C439.703 237.934 440.923 237.211 441.9 236.328C442.876 235.444 446.511 233.642 449.978 232.322C455.261 230.312 457.74 229.971 465.282 230.216C473.398 230.48 475.045 230.886 482.048 234.348ZM132.782 245.434V256.934H137.782H142.782V245.434V233.934H137.782H132.782V245.434ZM295.782 245.434V256.934H300.782H305.782V245.434V233.934H300.782H295.782V245.434ZM458.782 245.267C458.782 251.501 458.975 256.794 459.211 257.03C459.448 257.266 461.698 257.296 464.211 257.096L468.782 256.733V245.333V233.934H463.782H458.782V245.267ZM44.8529 258.686C39.2829 261.526 37.2819 265.123 37.2819 272.297C37.2819 277.434 37.7159 279.053 39.7819 281.616C44.3779 287.319 46.9679 287.934 66.3949 287.934H83.9409L83.1109 284.684C82.0239 280.422 82.0439 263.198 83.1399 259.684L83.9989 256.934L66.1399 256.936C51.1149 256.937 47.7379 257.214 44.8529 258.686ZM192.282 272.434V287.934H219.507H246.732L246.018 284.684C245.086 280.441 245.079 264.345 246.007 260.184L246.732 256.934H219.507L192.282 256.935V272.434ZM356.024 262.684C356.937 268.268 356.403 283.152 355.176 286.351C354.63 287.772 357.412 287.934 382.303 287.934H410.038L409.184 283.684C408.117 278.365 408.138 265.65 409.224 260.684L410.044 256.934H382.564H355.085L356.024 262.684ZM518.487 260.684C519.496 265.442 519.514 278.138 518.52 283.684L517.758 287.934H535.236C554.999 287.934 557.652 287.259 561.82 281.17C565.426 275.902 565.258 267.736 561.441 262.731C559.912 260.727 557.272 258.603 555.573 258.011C553.824 257.401 544.934 256.934 535.087 256.934H517.691L518.487 260.684ZM129.304 264.212C126.303 267.213 125.782 268.41 125.782 272.301C125.782 276.195 126.303 277.388 129.315 280.401C132.2 283.285 133.594 283.934 136.911 283.934C142.288 283.934 146.244 281.453 148.364 276.752C149.875 273.401 149.928 272.407 148.783 268.938C146.946 263.372 144.656 261.671 138.289 261.143C133.112 260.714 132.642 260.874 129.304 264.212ZM293.098 263.321C286.177 268.472 289.366 280.858 296.781 283.055C300.808 284.247 306.5 282.77 308.836 280.377C311.343 277.808 312.377 275.411 312.208 271.826C311.93 265.945 307.397 261.852 301.551 261.165C298.167 260.766 295.831 261.286 293.098 263.321ZM457.782 262.226C455.075 263.594 451.687 267.933 451.83 272.603C451.967 277.085 454.755 280.487 457.905 282.348C468.445 288.574 480.16 276.626 473.778 266.159C470.724 261.151 463.451 259.363 457.782 262.226ZM119.232 275.815C118.71 276.299 115.582 278.125 112.282 279.872C108.982 281.619 105.157 283.899 103.782 284.938L101.282 286.828L103.189 290.381C105.209 294.142 106.916 294.68 110.459 292.669C121.033 286.67 125.782 283.742 125.782 283.221C125.782 282.883 125.02 280.88 124.09 278.77C122.407 274.957 121.049 274.13 119.232 275.815ZM151.037 279.085C148.509 283.741 148.609 283.924 155.739 287.635C157.64 288.624 160.74 290.446 162.628 291.684C167.686 294.999 170.048 294.633 172.046 290.226C173.342 287.366 173.447 286.328 172.504 285.689C168.789 283.169 154.613 274.935 154.001 274.942C153.606 274.947 152.272 276.811 151.037 279.085ZM274.282 280.497C264.667 286.278 263.96 287.504 267.3 292.602C268.714 294.759 268.899 294.784 272.524 293.287C274.591 292.433 277.782 290.453 277.782 290.453L281.282 288.521L286.222 285.464L289.163 283.055L287.222 279.006L284.282 275.021C284.282 275.021 279.232 277.52 274.282 280.497ZM314.252 279.001L312.418 283.068L315.35 285.47C316.963 286.791 320.135 288.503 320.135 288.503L325.525 291.534L330.936 293.934L336.483 286.548L316.858 274.934L314.252 279.001ZM437.337 280.518C432.418 283.527 428.183 286.2 427.927 286.456C427.67 286.712 428.32 288.531 429.371 290.497C431.029 293.598 431.653 293.998 434.082 293.518C436.373 293.065 445.888 287.961 451.548 284.149C452.531 283.487 452.308 282.364 450.548 279.123C449.302 276.828 447.832 274.972 447.282 274.998C446.732 275.024 442.257 277.508 437.337 280.518ZM477.474 278.77C476.544 280.88 475.782 282.86 475.782 283.171C475.782 283.677 479.651 286.243 485.282 289.473C495.819 295.518 495.239 295.486 498.317 290.194C499.514 288.137 499.851 286.614 499.242 286.023C497.929 284.751 480.803 274.934 479.896 274.934C479.495 274.934 478.405 276.66 477.474 278.77ZM268.241 319C267.846 319.639 267.437 342.426 267.333 369.637L267.143 419.112L270.043 418.532C271.637 418.213 274.368 417.286 276.112 416.472C279.886 414.709 295.293 411.934 301.303 411.934C307.599 411.934 321.668 414.751 326.521 416.984C334.408 420.612 333.782 424.752 333.782 368.934C333.782 329.594 333.515 318.937 332.532 318.946C331.845 318.953 329.437 320.013 327.181 321.303C315.736 327.849 298.66 329.775 285.89 325.96C279.311 323.995 272.924 321.127 270.325 318.97C269.306 318.124 268.778 318.131 268.241 319ZM293.282 415.54C275.336 418.067 257.384 428.262 246.882 441.892C241.809 448.474 236.204 459.983 234.57 467.173C233.033 473.929 233.026 492.909 234.557 499.638C236.629 508.746 242.604 520.061 249.806 528.515C253.254 532.562 263.254 540.934 264.64 540.934C265.268 540.934 265.782 541.274 265.782 541.69C265.782 542.792 274.48 546.604 281.346 548.511C295.375 552.409 304.336 552.531 318.782 549.021C322.874 548.027 334.572 543.148 335.782 541.931C336.057 541.655 338.165 540.152 340.466 538.591C349.11 532.729 360.772 518.031 363.294 509.818C363.697 508.507 364.363 506.984 364.773 506.434C367.995 502.119 369.344 476.93 366.902 466.672C362.981 450.199 349.738 433.109 334.066 424.296C322.635 417.867 304.461 413.965 293.282 415.54ZM317.282 431.629C318.382 432.228 322.159 434.148 325.676 435.894C336.068 441.055 345.528 451.307 350.688 462.999C351.764 465.438 353.192 471.357 353.86 476.152C357.422 501.692 343.18 525.026 318.319 534.384C312.591 536.54 309.88 536.934 300.782 536.934C291.684 536.934 288.973 536.54 283.245 534.384C269.387 529.168 258.71 519.791 252.474 507.363C246.669 495.793 245.385 481.162 249.014 467.934C252.419 455.519 264.755 440.897 276.408 435.463C284.133 431.861 285.891 431.133 288.282 430.545C291.929 429.649 315.247 430.52 317.282 431.629ZM293.782 448.888V464.934H300.807H307.833L307.557 449.184L307.282 433.434L300.532 433.138L293.782 432.843V448.888ZM293.771 469.519C282.401 474.392 282.587 492.817 294.052 497.42C301.574 500.44 308.64 498.609 313.364 492.415C315.673 489.388 316.211 487.673 316.211 483.334C316.211 477.658 314.47 474.283 309.706 470.727C306.371 468.237 298.205 467.618 293.771 469.519ZM274.782 488.68C272.307 490.148 270.057 491.593 269.782 491.891C269.507 492.19 266.807 493.709 263.782 495.267C260.757 496.826 257.173 499.001 255.817 500.102L253.353 502.102L256.282 507.518C257.894 510.497 259.536 512.934 259.932 512.934C261.046 512.934 264.907 511.112 268.987 508.66C271.025 507.436 275.617 504.736 279.193 502.66C282.769 500.584 285.955 498.463 286.274 497.947C286.593 497.431 285.713 495.201 284.318 492.991C282.923 490.782 281.782 488.29 281.782 487.454C281.782 485.297 279.946 485.618 274.782 488.68ZM318.234 490.42C317.292 492.887 315.909 495.413 315.162 496.034C314.046 496.96 314.232 497.5 316.2 499.048C317.519 500.085 318.855 500.934 319.17 500.934C319.485 500.934 322.228 502.524 325.265 504.466C328.302 506.409 331.573 508.278 332.535 508.618C333.496 508.959 334.957 509.81 335.782 510.508C336.607 511.207 338.411 512.06 339.791 512.404C342.031 512.963 342.62 512.438 345.282 507.518C348.229 502.07 348.24 501.989 346.273 500.482C343.253 498.169 321.868 485.934 320.844 485.934C320.351 485.934 319.176 487.953 318.234 490.42ZM249.989 543.041L250.282 551.434L263.264 551.716C271.713 551.899 275.902 551.656 275.264 551.021C274.724 550.484 271.582 548.611 268.282 546.859C264.982 545.107 260.707 542.451 258.782 540.956C256.857 539.462 254.025 537.431 252.489 536.444L249.696 534.648L249.989 543.041ZM345.072 539.295C341.656 541.812 336.256 545.26 333.072 546.958C329.887 548.655 326.854 550.469 326.332 550.989C325.735 551.583 330.117 551.934 338.113 551.934C347.849 551.934 350.966 551.618 351.36 550.59C351.644 549.851 351.742 545.978 351.579 541.983L351.282 534.719L345.072 539.295ZM236.475 555.634C233.677 556.359 232.782 560.177 232.782 571.388C232.782 580.063 233.087 582.09 234.694 584.073L236.605 586.434H300.658C360.81 586.434 364.819 586.325 366.496 584.649C367.861 583.284 368.366 580.855 368.637 574.341C369.148 562.077 368.282 557.483 365.195 556.076C363.392 555.255 345.214 554.967 300.485 555.05C266.273 555.114 237.469 555.377 236.475 555.634ZM253.032 589.747L249.782 590.061V615.044V640.027L246.708 641.731C245.017 642.667 242.698 644.222 241.555 645.184C240.411 646.146 239.068 646.934 238.57 646.934C238.072 646.934 237.942 647.384 238.282 647.934C238.961 649.032 361.98 649.403 363.072 648.31C363.704 647.679 357.368 642.934 355.893 642.934C355.452 642.934 354.347 642.111 353.437 641.105C351.993 639.51 351.782 636.196 351.782 615.14C351.782 591.404 351.746 590.985 349.614 589.844C348.029 588.996 335.176 588.785 301.864 589.059C276.794 589.265 254.82 589.575 253.032 589.747ZM104.768 611.238C100.167 613.503 98.6509 618.285 99.1589 628.934C99.4079 634.159 99.6499 638.563 99.6969 638.722C99.7439 638.88 103.944 638.88 109.032 638.722L118.282 638.434L118.595 628.434C118.925 617.869 117.426 612.493 113.886 611.548C108.829 610.198 107.006 610.136 104.768 611.238ZM490.076 610.744C487.69 610.975 486.339 611.914 484.791 614.42C482.974 617.359 482.747 619.094 482.996 628.11L483.282 638.434L492.532 638.722L501.782 639.009V627.606C501.782 617.761 501.512 615.86 499.805 613.69C497.69 611.002 495.202 610.248 490.076 610.744ZM45.1299 642.627C40.6849 643.495 39.7119 652.756 43.8339 654.962C46.3659 656.317 171.22 656.305 173.754 654.949C177.873 652.745 177.444 644.516 173.124 642.874C170.736 641.966 49.7079 641.732 45.1299 642.627ZM431.843 642.667C429.243 642.902 426.875 643.764 426.125 644.751C424.417 646.997 424.452 651.1 426.199 653.493C427.515 655.294 429.331 655.47 451.449 655.934C486.371 656.667 557.467 655.652 558.715 654.403C560.898 652.217 561.017 647.446 558.953 644.897L556.959 642.434L496.621 642.35C463.434 642.304 434.285 642.447 431.843 642.667ZM221.068 653.662C215.264 656.553 214.628 659.504 214.974 681.941L215.282 701.9L218.551 705.167L221.82 708.434H300.883H379.946L382.766 705.277C385.209 702.543 385.681 700.992 386.289 693.691C387.356 680.883 386.514 659.859 384.831 657.284C381.254 651.811 383.124 651.929 300.498 651.998C232.713 652.055 223.926 652.239 221.068 653.662ZM93.4739 659.576C92.3499 660.699 92.6469 690.928 93.7819 690.978C94.3319 691.002 101.419 691.042 109.532 691.066L124.282 691.11V675.272V659.434L109.224 659.159C100.942 659.008 93.8539 659.195 93.4739 659.576ZM477.223 660.228C476.95 660.94 476.851 668.2 477.004 676.362L477.282 691.202L492.282 691.104C500.532 691.051 507.619 690.991 508.032 690.971C509.35 690.906 508.921 661.473 507.582 660.134C505.817 658.369 477.903 658.455 477.223 660.228ZM95.2819 694.833C91.0689 696.627 78.2259 707.127 77.0769 709.718C75.3169 713.685 75.4819 724.532 77.3589 728.283C78.2399 730.044 82.5369 734.081 87.0989 737.434L95.2619 743.434H108.772C123.71 743.434 122.614 743.794 133.893 735.186C140.184 730.384 141.509 728.104 142.396 720.559C143.396 712.053 140.886 707.723 130.731 700.434L122.372 694.434L109.827 694.208C102.927 694.083 96.3819 694.365 95.2819 694.833ZM479.054 694.957C475.077 696.557 462.17 706.84 460.706 709.575C458.84 713.064 458.84 724.806 460.708 728.295C461.492 729.76 464.632 732.866 467.685 735.196C478.488 743.441 478.154 743.321 491.379 743.744C505.361 744.192 506.786 743.704 517.72 734.722C522.385 730.89 524.411 728.47 525.075 725.934C526.215 721.588 525.46 710.992 523.826 708.38C522.425 706.143 511.727 697.818 507.282 695.506C503.912 693.754 483.055 693.348 479.054 694.957ZM250.458 712.592C250.086 712.963 249.782 735.482 249.782 762.633C249.782 810.553 249.839 812.019 251.719 812.716C252.785 813.111 275.622 813.209 302.469 812.934L351.282 812.434V762.434V712.434L301.208 712.175C273.667 712.032 250.83 712.22 250.458 712.592ZM45.0969 729.897C43.8959 730.406 42.4329 731.717 41.8469 732.812C41.1659 734.085 40.7819 744.935 40.7819 762.914V791.025L43.2369 793.479C45.5479 795.79 46.3399 795.934 56.7839 795.934C67.4959 795.934 67.9619 795.843 70.3299 793.288L72.7819 790.642L72.7489 762.538C72.7069 727.48 73.6249 729.544 57.9209 729.204C52.0699 729.077 46.2989 729.389 45.0969 729.897ZM149.753 729.581C146.048 730.586 145.55 733.648 145.638 754.854C145.685 766.173 145.737 779.062 145.753 783.495C145.777 790.296 146.113 791.912 147.897 793.827C149.903 795.981 150.614 796.079 161.856 795.765C172.307 795.473 173.878 795.199 175.209 793.434C176.472 791.761 176.724 786.727 176.75 762.639L176.782 733.843L174.327 731.389C172.021 729.082 171.252 728.941 161.577 729.05C155.915 729.114 150.594 729.353 149.753 729.581ZM428.753 729.54C425.106 730.626 424.787 733.248 424.749 762.375C424.722 783.774 425.029 791.357 425.988 792.892C427.65 795.553 431.545 796.209 443.174 795.783C451.285 795.486 452.922 795.137 454.208 793.434C456.456 790.457 456.457 734.413 454.209 731.434C452.873 729.664 451.413 729.414 441.491 729.259C435.326 729.163 429.594 729.29 428.753 729.54ZM533.782 729.59C532.957 729.912 531.505 731.133 530.554 732.304C529.009 734.209 528.824 737.429 528.804 762.729L528.782 791.025L531.237 793.479C533.548 795.79 534.34 795.934 544.782 795.934C555.224 795.934 556.016 795.79 558.327 793.479L560.782 791.025V762.59C560.782 727.228 561.793 729.529 546.122 729.22C540.16 729.102 534.607 729.269 533.782 729.59ZM75.9769 738.092L76.2819 743.434L80.6459 743.747C83.0469 743.919 85.7049 743.794 86.5539 743.468C88.2919 742.801 87.7659 742.215 79.9419 736.092L75.6709 732.751L75.9769 738.092ZM522.454 735.211C515.072 741.013 513.782 742.175 513.782 743.023C513.782 743.524 516.271 743.934 519.313 743.934C525.554 743.934 526.077 743.363 525.595 737.075L525.282 732.987L522.454 735.211ZM138.205 735.717C137.063 736.661 134.926 738.328 133.455 739.421C129.333 742.486 130.04 743.934 135.66 743.934C141.25 743.934 142.36 742.941 142.643 737.684C142.868 733.495 141.583 732.925 138.205 735.717ZM458.782 737.734C458.782 739.824 459.322 742.074 459.982 742.734C461.622 744.374 470.796 744.331 470.739 742.684C470.692 741.28 461.57 733.934 459.875 733.934C459.274 733.934 458.782 735.644 458.782 737.734ZM105.782 746.934L76.2819 747.434V762.79V778.146L108.733 778.039C126.581 777.98 141.557 777.559 142.012 777.104C142.467 776.649 142.714 769.794 142.561 761.871L142.282 747.466L138.782 746.95C136.857 746.666 122.007 746.659 105.782 746.934ZM180.462 747.587C179.46 748.589 179.633 776.724 180.645 777.349C181.12 777.643 195.99 778.007 213.689 778.158C245.155 778.428 245.881 778.39 246.364 776.434C246.636 775.334 246.728 768.359 246.57 760.934L246.282 747.434L213.712 747.171C195.799 747.026 180.836 747.213 180.462 747.587ZM355.462 747.587C354.29 748.76 354.669 776.746 355.867 777.487C356.464 777.855 371.184 778.107 388.578 778.045C415.196 777.95 420.333 777.701 421.021 776.471C421.471 775.667 421.714 768.805 421.56 761.222L421.282 747.434L388.712 747.171C370.799 747.026 355.836 747.213 355.462 747.587ZM459.462 747.587C458.41 748.64 458.659 776.411 459.731 777.484C460.311 778.066 473.201 778.24 492.981 777.934L525.282 777.434V762.434V747.434L492.712 747.171C474.799 747.026 459.836 747.213 459.462 747.587ZM4.30087 752.483C-1.95613 758.925 -1.29913 768.768 5.70487 773.528C9.03687 775.792 10.0909 775.934 23.5139 775.934H37.7819V762.434V748.934H22.7639H7.74687L4.30087 752.483ZM563.782 762.364V775.934H577.914C590.393 775.934 592.432 775.695 595.346 773.894C600.033 770.998 602.51 764.308 600.894 758.913C600.242 756.738 598.558 753.715 597.152 752.196C594.602 749.442 594.551 749.433 579.188 749.114L563.782 748.793V762.364ZM223.668 816.637C222.23 816.859 219.755 818.396 218.168 820.053L215.282 823.065V844.25C215.282 863.873 215.429 865.632 217.282 868.116C218.382 869.591 220.316 871.278 221.579 871.866C223.146 872.594 248.441 872.934 301.162 872.934H378.449L382.365 869.549L386.282 866.163V845.123C386.282 825.335 386.157 823.915 384.188 821.258C383.037 819.705 380.562 817.897 378.688 817.24C376.157 816.354 356.143 816.071 300.782 816.14C259.807 816.192 225.106 816.415 223.668 816.637Z" fill="white"/>
</svg>
